#define right_width 16
#define right_height 16
static unsigned char right_bits[] = {
   0x00, 0x00, 0x00, 0x00, 0x00, 0x00, 0x00, 0x00, 0x30, 0x00, 0xf0, 0x00,
   0xf0, 0x03, 0xf0, 0x0f, 0xf0, 0x1f, 0xf0, 0x0f, 0xf0, 0x03, 0xf0, 0x00,
   0x30, 0x00, 0x00, 0x00, 0x00, 0x00, 0x00, 0x00};
