#define angle_right_width 40
#define angle_right_height 10
static char angle_right_bits[] = {
   0x00, 0x00, 0x00, 0x00, 0x00, 0x3e, 0x00, 0x00, 0x00, 0x00, 0xc2, 0xff,
   0x00, 0x00, 0x00, 0x02, 0x00, 0xff, 0x01, 0x00, 0x02, 0x00, 0x00, 0xfe,
   0x07, 0x02, 0x00, 0x00, 0x00, 0xf8, 0x02, 0x00, 0x00, 0xfe, 0x07, 0x02,
   0x00, 0xff, 0x01, 0x00, 0xc2, 0xff, 0x00, 0x00, 0x00, 0x3e, 0x00, 0x00,
   0x00, 0x00};
