#define angle_left_width 40
#define angle_left_height 10
static char angle_left_bits[] = {
   0x00, 0x00, 0x00, 0x00, 0x00, 0x00, 0x00, 0x00, 0x00, 0xf8, 0x00, 0x00,
   0x00, 0xfe, 0x87, 0x00, 0x00, 0xff, 0x01, 0x80, 0xc0, 0xff, 0x00, 0x00,
   0x80, 0x3e, 0x00, 0x00, 0x00, 0x80, 0xc0, 0xff, 0x00, 0x00, 0x80, 0x00,
   0x00, 0xff, 0x01, 0x80, 0x00, 0x00, 0x00, 0xfe, 0x87, 0x00, 0x00, 0x00,
   0x00, 0xf8};
