#define angle_down_width 10
#define angle_down_height 40
static char angle_down_bits[] = {
   0x00, 0x00, 0xfe, 0x03, 0x02, 0x02, 0x02, 0x02, 0x02, 0x02, 0x02, 0x02,
   0x04, 0x01, 0x04, 0x01, 0x04, 0x01, 0x04, 0x01, 0x04, 0x01, 0x04, 0x01,
   0x04, 0x01, 0x04, 0x01, 0x04, 0x01, 0x04, 0x01, 0x88, 0x00, 0x88, 0x00,
   0x88, 0x00, 0x88, 0x00, 0x88, 0x00, 0x88, 0x00, 0x88, 0x00, 0x88, 0x00,
   0x88, 0x00, 0x50, 0x00, 0x50, 0x00, 0x50, 0x00, 0x50, 0x00, 0x50, 0x00,
   0x50, 0x00, 0x50, 0x00, 0x50, 0x00, 0x50, 0x00, 0x50, 0x00, 0x20, 0x00,
   0x20, 0x00, 0x20, 0x00, 0x20, 0x00, 0x20, 0x00};
