#define angle_up_width 10
#define angle_up_height 40
static char angle_up_bits[] = {
   0x00, 0x00, 0x20, 0x00, 0x20, 0x00, 0x20, 0x00, 0x20, 0x00, 0x20, 0x00,
   0x50, 0x00, 0x50, 0x00, 0x50, 0x00, 0x50, 0x00, 0x50, 0x00, 0x50, 0x00,
   0x50, 0x00, 0x50, 0x00, 0x50, 0x00, 0x50, 0x00, 0x88, 0x00, 0x88, 0x00,
   0x88, 0x00, 0x88, 0x00, 0x88, 0x00, 0x88, 0x00, 0x88, 0x00, 0x88, 0x00,
   0x88, 0x00, 0x04, 0x01, 0x04, 0x01, 0x04, 0x01, 0x04, 0x01, 0x04, 0x01,
   0x04, 0x01, 0x04, 0x01, 0x04, 0x01, 0x04, 0x01, 0x04, 0x01, 0x02, 0x02,
   0x02, 0x02, 0x02, 0x02, 0x02, 0x02, 0xfe, 0x03};
