#define left_width 10
#define left_height 30
static char left_bits[] = {
   0x00, 0x00, 0x00, 0x02, 0x00, 0x03, 0x00, 0x03, 0x80, 0x02, 0x80, 0x02,
   0x40, 0x02, 0x40, 0x02, 0x20, 0x02, 0x10, 0x02, 0x10, 0x02, 0x08, 0x02,
   0x08, 0x02, 0x04, 0x02, 0x04, 0x02, 0x02, 0x02, 0x04, 0x02, 0x04, 0x02,
   0x08, 0x02, 0x08, 0x02, 0x10, 0x02, 0x10, 0x02, 0x20, 0x02, 0x40, 0x02,
   0x40, 0x02, 0x80, 0x02, 0x80, 0x02, 0x00, 0x03, 0x00, 0x03, 0x00, 0x02};
