#define refresh_right_width 10
#define refresh_right_height 10
static char refresh_right_bits[] = {
   0x00, 0x00, 0x02, 0x00, 0x0e, 0x00, 0x32, 0x00, 0xce, 0x00, 0x3e, 0x03,
   0xce, 0x00, 0x32, 0x00, 0x0e, 0x00, 0x02, 0x00};
