#define refresh_left_width 10
#define refresh_left_height 10
static char refresh_left_bits[] = {
   0x00, 0x00, 0x00, 0x02, 0x80, 0x03, 0x60, 0x02, 0x98, 0x03, 0xe6, 0x03,
   0x98, 0x03, 0x60, 0x02, 0x80, 0x03, 0x00, 0x02};
