#define right_width 10
#define right_height 30
static char right_bits[] = {
   0x00, 0x00, 0x02, 0x00, 0x06, 0x00, 0x06, 0x00, 0x0a, 0x00, 0x0a, 0x00,
   0x12, 0x00, 0x12, 0x00, 0x22, 0x00, 0x42, 0x00, 0x42, 0x00, 0x82, 0x00,
   0x82, 0x00, 0x02, 0x01, 0x02, 0x01, 0x02, 0x02, 0x02, 0x01, 0x02, 0x01,
   0x82, 0x00, 0x82, 0x00, 0x42, 0x00, 0x42, 0x00, 0x22, 0x00, 0x12, 0x00,
   0x12, 0x00, 0x0a, 0x00, 0x0a, 0x00, 0x06, 0x00, 0x06, 0x00, 0x02, 0x00};
