#define up_width 40
#define up_height 10
static char up_bits[] = {
   0x00, 0x00, 0x30, 0x00, 0x00, 0x00, 0x00, 0xcc, 0x00, 0x00, 0x00, 0x00,
   0x03, 0x03, 0x00, 0x00, 0xc0, 0x00, 0x0c, 0x00, 0x00, 0x30, 0x00, 0x30,
   0x00, 0x00, 0x0e, 0x00, 0xc0, 0x00, 0x80, 0x01, 0x00, 0x00, 0x03, 0x60,
   0x00, 0x00, 0x00, 0x0c, 0x18, 0x00, 0x00, 0x00, 0x30, 0xfe, 0xff, 0xff,
   0xff, 0xff};
