#define zmax_down_width 16
#define zmax_down_height 10
static char zmax_down_bits[] = {
   0x00, 0x00, 0xfe, 0xff, 0x04, 0x40, 0x08, 0x20, 0x10, 0x10, 0x10, 0x10,
   0x20, 0x08, 0x40, 0x04, 0x80, 0x02, 0x00, 0x01};
