#define zmax_up_width 16
#define zmax_up_height 10
static char zmax_up_bits[] = {
   0x00, 0x01, 0x80, 0x02, 0x40, 0x04, 0x40, 0x04, 0x20, 0x08, 0x10, 0x10,
   0x08, 0x20, 0x08, 0x20, 0x04, 0x40, 0xfe, 0xff};
